<svg version="1.1" id="Layer_1" xmlns="http://www.w3.org/2000/svg" x="0" y="0" viewBox="0 0 110.9 64" xml:space="preserve"><style>.st0{fill:#f9f9f9}.st1{fill:none;stroke:#c7c7c7;stroke-width:3;stroke-linejoin:round;stroke-miterlimit:10}.st2{fill:#c7c7c7}.st3{fill:#8d81ac}</style><switch><g><path class="st0" d="M1.5 1.5H74v10H1.5z"/><path class="st1" d="M1.5 1.5h73v61h-73zm-.5 10h73"/><path class="st2" d="M10.1 6.6c0 .9-.7 1.6-1.6 1.6-.9 0-1.6-.7-1.6-1.6 0-.9.7-1.6 1.6-1.6.8-.1 1.6.7 1.6 1.6z"/><path class="st3" d="M15.1 6.6c0 .9-.7 1.6-1.6 1.6-.9 0-1.6-.7-1.6-1.6 0-.9.7-1.6 1.6-1.6.8-.1 1.6.7 1.6 1.6z"/><path class="st2" d="M20.1 6.6c0 .9-.7 1.6-1.6 1.6-.9 0-1.6-.7-1.6-1.6 0-.9.7-1.6 1.6-1.6.8-.1 1.6.7 1.6 1.6z"/><path class="st1" d="M8.5 19.5h24v16h-24zm34 0h24v16h-24z"/><path d="M9 44.5h23m-23 9h23m11-9h23m-23 9h23" fill="none" stroke="#8d81ac" stroke-width="3" stroke-linecap="round" stroke-linejoin="round" stroke-miterlimit="10"/><path class="st0" d="M109.6 54.1l-9.8-9.8c-.1-.1-.3-.3-.5-.4 5.2-8.3 4.2-19.4-3-26.6-4.1-4.1-9.5-6.3-15.2-6.3-5.7 0-11.1 2.2-15.2 6.3s-6.3 9.5-6.3 15.2c0 5.7 2.2 11.1 6.3 15.2S75.4 54 81.1 54c4.4 0 8.5-1.3 12-3.7l.3.3 9.8 9.8c.8.9 2 1.3 3.2 1.3 1.2 0 2.3-.5 3.2-1.3.9-.8 1.3-2 1.3-3.2 0-1.1-.5-2.3-1.3-3.1zM81.1 45c-3.3 0-6.5-1.3-8.8-3.7-4.9-4.9-4.9-12.8 0-17.7 2.4-2.4 5.5-3.7 8.8-3.7 3.3 0 6.5 1.3 8.8 3.7 4.9 4.9 4.9 12.8 0 17.7-2.3 2.4-5.4 3.7-8.8 3.7z"/><path class="st3" d="M81.1 51c-4.9 0-9.6-1.9-13.1-5.4-7.2-7.2-7.2-18.9 0-26.2 3.5-3.5 8.1-5.4 13.1-5.4 4.9 0 9.6 1.9 13.1 5.4 7.2 7.2 7.2 18.9 0 26.2-3.5 3.5-8.1 5.4-13.1 5.4zm0-34c-4.1 0-8 1.6-11 4.5-6 6-6 15.9 0 21.9 2.9 2.9 6.8 4.5 11 4.5 4.1 0 8-1.6 11-4.5 6-6 6-15.9 0-21.9-2.9-2.9-6.8-4.5-11-4.5z"/><path class="st2" d="M105.4 57.8c-.4 0-.8-.1-1.1-.4l-7.8-7.8c-.5-.6-.5-1.6.1-2.2.6-.6 1.5-.6 2.1 0l7.8 7.8c.6.6.6 1.5 0 2.1-.3.3-.7.5-1.1.5z"/></g></switch></svg>