<svg version="1.1" id="Isolation_Mode" xmlns="http://www.w3.org/2000/svg" x="0" y="0" viewBox="0 0 89.8 80" xml:space="preserve"><style>.st1,.st2{fill:none;stroke:#c7c7c7;stroke-width:3;stroke-linecap:round;stroke-linejoin:round;stroke-miterlimit:10}.st2{stroke:#8d81ac}</style><switch><g><path d="M23.7 20.2C9.8 32 8 52.8 19.7 66.7c11.7 13.9 32.5 15.8 46.4 4C80 59 81.9 38.2 70.1 24.3 58.5 10.4 37.7 8.5 23.7 20.2z" fill="none" stroke="#c7c7c7" stroke-width="3" stroke-linejoin="round" stroke-miterlimit="10"/><path class="st1" d="M44.9 4V1.5m14.3 5l.8-2.3m11.7 9.5l1.6-1.9m7.6 13l2.2-1.2m2.7 14.8l2.5-.4m-2.5 14.9l2.4.4m-7.4 13.2l2.1 1.2"/><path class="st2" d="M8.7 65.9l-2.1 1.2M3.9 52.2l-2.4.4m2.6-14.8l-2.4-.5m7.5-13L7.1 23m11.6-9.7l-1.6-1.9"/><path class="st1" d="M31.3 6.3l-.8-2.4"/><path class="st2" d="M32.8 31.1l-4-4.7"/><path d="M46.5 54.8c-5.1.9-10-2.5-10.9-7.7-.9-5.1 2.5-10 7.7-10.9 5.1-.9 10 2.5 10.9 7.7.9 5.1-2.5 10-7.7 10.9z" fill="#fff" stroke="#c7c7c7" stroke-width="3" stroke-linecap="round" stroke-linejoin="round" stroke-miterlimit="10"/></g></switch></svg>