<svg version="1.1" id="Layer_1" xmlns="http://www.w3.org/2000/svg" x="0" y="0" viewBox="0 0 60 83.8" xml:space="preserve"><style>.st0{fill:#8d81ac}.st1{fill:#fff}</style><switch><g><path class="st0" d="M1.5 82.8h57l-9.6-20H11.1z"/><path class="st1" d="M24.5 35.8v4L7.3 78.4h4l17.2-38.6v-4z"/><path class="st0" d="M32.8 31.2c0 1.6-1.3 2.8-2.8 2.8-1.6 0-2.8-1.3-2.8-2.8 0-1.6 1.3-2.8 2.8-2.8 1.6 0 2.8 1.3 2.8 2.8z"/><path d="M39.5 27.8v12l19 42.5h-57l19-42.5v-12M44 22.3H16" fill="none" stroke="#c7c7c7" stroke-width="3" stroke-linecap="round" stroke-linejoin="round" stroke-miterlimit="10"/><path class="st0" d="M45.1 5.7c0 3.1-2.5 5.7-5.7 5.7-3.1 0-5.7-2.5-5.7-5.7 0-3.1 2.5-5.7 5.7-5.7 3.1 0 5.7 2.5 5.7 5.7z"/><path class="st1" d="M34.6 69.2c0 .5-.4.9-.9.9s-.9-.4-.9-.9.4-.9.9-.9.9.4.9.9z"/><path class="st0" d="M37.4 60.8c-1.1 0-2 .9-2 2h4.1c-.1-1.1-1-2-2.1-2z"/><path class="st1" d="M37.4 64.9c1.1 0 2-.9 2-2h-4.1c0 1.1 1 2 2.1 2z"/></g></switch></svg>